<svg width="24px" height="24px" viewBox="0 0 24 24" version="1.1" xmlns="http://www.w3.org/2000/svg"><g id="Home" stroke="none" stroke-width="1" fill="none" fill-rule="evenodd" opacity=".5"><g id="Artboard" fill="#86929F"><path d="M5,0 L19,0 C21.7614237,-5.07265313e-16 24,2.23857625 24,5 L24,19 C24,21.7614237 21.7614237,24 19,24 L5,24 C2.23857625,24 2.11453371e-15,21.7614237 1.77635684e-15,19 L0,5 C-3.38176876e-16,2.23857625 2.23857625,2.28362215e-15 5,0 Z M13.7694564,3.00124944 L13.7703565,3.00214946 L10.2395709,3.00214946 C8.43412709,3.00214946 6.02656872,2.90584712 4.39842924,4.53218655 C2.77298983,6.15762596 3.01239564,8.42118084 3.01239564,10.2266246 L3.01239564,13.7556102 C3.01239564,15.5610539 2.77298983,18.0163135 4.39932926,19.6426529 C6.02566869,21.2689923 8.43322706,20.9809853 10.2386708,20.9809853 L13.7694564,20.9809853 C15.5749002,20.9809853 17.8870563,21.2671923 19.5133957,19.6426529 C21.1397351,18.0181135 20.9957316,15.5610539 20.9957316,13.7565102 L20.9957316,10.2266246 C20.9957316,8.42118084 21.1559355,6.16392611 19.5133957,4.53128653 C17.8699559,2.89954697 15.5749002,3.00124944 13.7694564,3.00124944 Z M14.409372,4.63388902 C15.8890078,4.63388902 17.0887369,4.48808548 18.286666,5.68691455 C19.3477917,6.75164036 19.3720923,8.11697346 19.3720923,9.59570931 L19.3720923,14.4036259 C19.3720923,15.8823617 19.3405915,17.2764955 18.286666,18.3295211 C17.2336404,19.3852467 15.8890078,19.3663462 14.409372,19.3663462 L9.60145539,19.3663462 C8.12181951,19.3663462 6.84468855,19.5256501 5.64675951,18.3295211 C4.44973049,17.132492 4.63873507,15.8823617 4.63873507,14.4036259 L4.63873507,9.59570931 C4.63873507,8.11697346 4.44703042,6.88394357 5.64675951,5.68691455 C6.84378853,4.48988553 8.12271954,4.63388902 9.60145539,4.63388902 L14.409372,4.63388902 Z M12.0000135,14.9229385 C10.3860327,14.9229385 9.07764269,13.6145485 9.07764269,12.0005676 C9.07764269,10.3865868 10.3860327,9.07819677 12.0000135,9.07819677 C13.6139944,9.07819677 14.9223844,10.3865868 14.9223844,12.0005676 C14.9223844,13.6145485 13.6139944,14.9229385 12.0000135,14.9229385 Z M12.0000135,16.5006767 C14.4853552,16.5006767 16.5001226,14.4859092 16.5001226,12.0005676 C16.5001226,9.51522599 14.4853552,7.50045852 12.0000135,7.50045852 C9.51467191,7.50045852 7.49990444,9.51522599 7.49990444,12.0005676 C7.49990444,14.4859092 9.51467191,16.5006767 12.0000135,16.5006767 Z M16.5001226,7.50045852 C16.997191,7.50045852 17.4001445,7.09750502 17.4001445,6.6004367 C17.4001445,6.10336837 16.997191,5.70041488 16.5001226,5.70041488 C16.0030543,5.70041488 15.6001008,6.10336837 15.6001008,6.6004367 C15.6001008,7.09750502 16.0030543,7.50045852 16.5001226,7.50045852 Z" id="Shape"></path></g></g></svg>