<svg xmlns="http://www.w3.org/2000/svg" width="24" height="25" viewBox="0 0 24 25"><path fill="#86929F" fill-rule="evenodd" d="M22.063.427c.54 0 1 .177 1.375.53.375.354.562.8.562 1.34v20.024c0 .54-.188 1.02-.563 1.435-.375.416-.833.624-1.375.624h-20c-.54 0-1.02-.21-1.437-.625C.208 23.34 0 22.86 0 22.32V2.3c0-.54.198-.987.594-1.34.396-.354.885-.53 1.47-.53H22.06zM7.438 20.387V9.72H4v10.667h3.438zM4.5 7.6c.333.333.77.5 1.313.5.54 0 .99-.177 1.343-.53.354-.354.532-.78.532-1.28 0-.54-.167-.987-.5-1.34-.334-.354-.77-.53-1.313-.53-.542 0-.99.176-1.344.53-.353.353-.53.8-.53 1.34 0 .5.167.936.5 1.31zM20 20.387V14.15c0-1.54-.365-2.703-1.094-3.493-.73-.79-1.677-1.186-2.843-1.186-1.25 0-2.292.584-3.125 1.748V9.72H9.5v10.667h3.438v-6.05c0-.416.04-.707.124-.874.334-.83.917-1.247 1.75-1.247 1.167 0 1.75.77 1.75 2.308v5.863H20z" opacity=".5"></path></svg>