<svg xmlns="http://www.w3.org/2000/svg" width="24" height="25" viewBox="0 0 24 25"><path fill="#86929F" fill-rule="evenodd" d="M20 7.943c-.583.26-1.214.437-1.89.53.708-.415 1.192-1.023 1.453-1.824-.678.394-1.375.66-2.094.794-.637-.686-1.434-1.03-2.392-1.03-.906 0-1.68.32-2.32.96-.64.64-.96 1.41-.96 2.316 0 .3.025.55.077.748-1.344-.072-2.604-.41-3.78-1.013-1.178-.603-2.178-1.41-3-2.417-.303.52-.454 1.07-.454 1.653 0 1.186.475 2.095 1.423 2.73-.49-.01-1.01-.146-1.563-.406 0 .81.26 1.505.78 2.113.522.608 1.163.985 1.923 1.13-.302.084-.568.125-.797.125-.135 0-.338-.02-.61-.062.22.655.608 1.195 1.165 1.622.558.426 1.19.644 1.9.655-1.21.935-2.568 1.403-4.08 1.403-.27 0-.53-.016-.78-.047 1.542.977 3.22 1.466 5.03 1.466 1.168 0 2.262-.186 3.282-.555 1.02-.37 1.896-.862 2.625-1.48.73-.62 1.357-1.332 1.883-2.137.526-.806.917-1.648 1.172-2.526.255-.88.383-1.755.383-2.628 0-.187-.005-.327-.016-.42.656-.47 1.202-1.035 1.64-1.7zm4-3.025v14.97c0 1.237-.44 2.295-1.32 3.173-.88.88-1.94 1.32-3.18 1.32h-15c-1.24 0-2.3-.44-3.18-1.32C.44 22.184 0 21.126 0 19.89V4.918C0 3.68.44 2.623 1.32 1.745 2.2.865 3.26.427 4.5.427h15c1.24 0 2.3.44 3.18 1.318.88.878 1.32 1.936 1.32 3.173z" opacity=".5"></path></svg>